<svg xmlns="http://www.w3.org/2000/svg" viewBox="0 0 1000 324.68">
  <defs>
    <style>
      .visa-blue {
        fill: #0066B2;
      }
      .visa-gold {
        fill: #F7B600;
      }
    </style>
  </defs>
  <path class="visa-blue" d="M651.19,0c-70,0-132.76,37.21-132.76,121.39,0,89.59,112.87,95.79,112.87,142.48,0,19.41-22,36.38-58.95,36.38-52.75,0-91.66-22.28-91.66-22.28l-16.28,76.06s45.15,22.55,106.13,22.55c63.29,0,141.59-31.49,141.59-122.73,0-93.5-113.44-99.25-113.44-143.38C598.69,86.57,622,77.18,650,77.18c42,0,68.06,12.34,68.06,12.34l15.83-73.62S689.51,0,651.19,0"/>
  <path class="visa-blue" d="M321.26,7.85l-104.5,246h-69.6L95.56,42.77c0,.08-9-29.71-37-38.56A1084.1,1084.1,0,0,0,0,7.85H104.22l6.87,17.87L147.58,195l59.89-187.16Z"/>
  <path class="visa-blue" d="M444.74,7.76,378.69,253.8H313.63l66.05-246Z"/>
  <path class="visa-blue" d="M985.36,7.76h-99.67c-22.85,0-40.66,6.78-50.75,24.65L731.29,253.8h69.6s12.08-33.76,14.8-41.22c8.09,0,79.72,0.08,90,0.08,2.1,9.61,8.56,41.13,8.56,41.13h61.56L985.36,7.76ZM832.3,156c5.8-15.73,27.92-75.7,27.92-75.7,0.41,0.76,5.75-15.82,9.29-26.09l4.75,23.5S898.71,137.95,902.3,156Z"/>
  <path class="visa-gold" d="M217,7.85H160L95.56,42.77c0,0.08-9-29.71-37-38.56a1084.1,1084.1,0,0,0-58.56-4.36H104.22l6.87,17.87L147.58,195l59.89-187.16Z"/>
</svg>